<?xml version="1.0" encoding="UTF-8" standalone="no"?>
<!DOCTYPE svg PUBLIC "-//W3C//DTD SVG 1.1//EN"
 "http://www.w3.org/Graphics/SVG/1.1/DTD/svg11.dtd">
<!-- Generated by graphviz version 2.38.0 (20140413.2041)
 -->
<!-- Title: %3 Pages: 1 -->
<svg width="918pt" height="188pt"
 viewBox="0.00 0.00 918.14 188.00" xmlns="http://www.w3.org/2000/svg" xmlns:xlink="http://www.w3.org/1999/xlink">
<g id="graph0" class="graph" transform="scale(1 1) rotate(0) translate(4 184)">
<title>%3</title>
<polygon fill="white" stroke="none" points="-4,4 -4,-184 914.136,-184 914.136,4 -4,4"/>
<!-- Titanic -->
<g id="node1" class="node"><title>Titanic</title>
<ellipse fill="none" stroke="black" cx="43.5461" cy="-90" rx="43.5923" ry="18"/>
<text text-anchor="middle" x="43.5461" y="-86.3" font-family="Times,serif" font-size="14.00">Titanic</text>
</g>
<!-- Home Alone -->
<g id="node3" class="node"><title>Home Alone</title>
<ellipse fill="none" stroke="black" cx="290.546" cy="-18" rx="67.6881" ry="18"/>
<text text-anchor="middle" x="290.546" y="-14.3" font-family="Times,serif" font-size="14.00">Home Alone</text>
</g>
<!-- Titanic&#45;&gt;Home Alone -->
<g id="edge1" class="edge"><title>Titanic&#45;&gt;Home Alone</title>
<path fill="none" stroke="black" d="M76.199,-78.0459C82.5957,-75.979 89.2675,-73.8783 95.5461,-72 141.672,-58.2014 194.383,-43.9659 233.363,-33.7274"/>
<polygon fill="black" stroke="black" points="234.682,-37.0001 243.47,-31.0815 232.909,-30.2283 234.682,-37.0001"/>
</g>
<!-- Ghostbusters -->
<g id="node2" class="node"><title>Ghostbusters</title>
<ellipse fill="none" stroke="black" cx="579.546" cy="-162" rx="73.387" ry="18"/>
<text text-anchor="middle" x="579.546" y="-158.3" font-family="Times,serif" font-size="14.00">Ghostbusters</text>
</g>
<!-- Forrest Gump -->
<g id="node7" class="node"><title>Forrest Gump</title>
<ellipse fill="none" stroke="black" cx="573.546" cy="-90" rx="75.2868" ry="18"/>
<text text-anchor="middle" x="573.546" y="-86.3" font-family="Times,serif" font-size="14.00">Forrest Gump</text>
</g>
<!-- Ghostbusters&#45;&gt;Forrest Gump -->
<g id="edge2" class="edge"><title>Ghostbusters&#45;&gt;Forrest Gump</title>
<path fill="none" stroke="black" d="M578.063,-143.697C577.402,-135.983 576.607,-126.712 575.87,-118.112"/>
<polygon fill="black" stroke="black" points="579.354,-117.769 575.012,-108.104 572.379,-118.367 579.354,-117.769"/>
</g>
<!-- Rocky -->
<g id="node4" class="node"><title>Rocky</title>
<ellipse fill="none" stroke="black" cx="144.546" cy="-90" rx="39.7935" ry="18"/>
<text text-anchor="middle" x="144.546" y="-86.3" font-family="Times,serif" font-size="14.00">Rocky</text>
</g>
<!-- Rocky&#45;&gt;Home Alone -->
<g id="edge3" class="edge"><title>Rocky&#45;&gt;Home Alone</title>
<path fill="none" stroke="black" d="M170.986,-76.3235C192.991,-65.773 224.684,-50.5777 249.911,-38.4824"/>
<polygon fill="black" stroke="black" points="251.726,-41.4941 259.23,-34.0147 248.699,-35.1821 251.726,-41.4941"/>
</g>
<!-- Raiders of the Lost Ark -->
<g id="node5" class="node"><title>Raiders of the Lost Ark</title>
<ellipse fill="none" stroke="black" cx="790.546" cy="-162" rx="119.679" ry="18"/>
<text text-anchor="middle" x="790.546" y="-158.3" font-family="Times,serif" font-size="14.00">Raiders of the Lost Ark</text>
</g>
<!-- Raiders of the Lost Ark&#45;&gt;Forrest Gump -->
<g id="edge4" class="edge"><title>Raiders of the Lost Ark&#45;&gt;Forrest Gump</title>
<path fill="none" stroke="black" d="M742.387,-145.465C707.919,-134.346 661.538,-119.384 626.11,-107.956"/>
<polygon fill="black" stroke="black" points="627.018,-104.571 616.426,-104.832 624.869,-111.233 627.018,-104.571"/>
</g>
<!-- Inception -->
<g id="node6" class="node"><title>Inception</title>
<ellipse fill="none" stroke="black" cx="432.546" cy="-162" rx="55.4913" ry="18"/>
<text text-anchor="middle" x="432.546" y="-158.3" font-family="Times,serif" font-size="14.00">Inception</text>
</g>
<!-- Inception&#45;&gt;Forrest Gump -->
<g id="edge5" class="edge"><title>Inception&#45;&gt;Forrest Gump</title>
<path fill="none" stroke="black" d="M461.761,-146.496C482.463,-136.219 510.497,-122.301 533.312,-110.974"/>
<polygon fill="black" stroke="black" points="535.012,-114.038 542.412,-106.457 531.899,-107.768 535.012,-114.038"/>
</g>
<!-- Avatar -->
<g id="node9" class="node"><title>Avatar</title>
<ellipse fill="none" stroke="black" cx="438.546" cy="-90" rx="41.6928" ry="18"/>
<text text-anchor="middle" x="438.546" y="-86.3" font-family="Times,serif" font-size="14.00">Avatar</text>
</g>
<!-- Inception&#45;&gt;Avatar -->
<g id="edge6" class="edge"><title>Inception&#45;&gt;Avatar</title>
<path fill="none" stroke="black" d="M434.029,-143.697C434.69,-135.983 435.485,-126.712 436.222,-118.112"/>
<polygon fill="black" stroke="black" points="439.713,-118.367 437.08,-108.104 432.739,-117.769 439.713,-118.367"/>
</g>
<!-- Forrest Gump&#45;&gt;Home Alone -->
<g id="edge7" class="edge"><title>Forrest Gump&#45;&gt;Home Alone</title>
<path fill="none" stroke="black" d="M523.278,-76.5661C474.287,-64.4483 399.862,-46.0394 348.426,-33.3167"/>
<polygon fill="black" stroke="black" points="349.008,-29.8551 338.46,-30.8515 347.327,-36.6503 349.008,-29.8551"/>
</g>
<!-- The Matrix -->
<g id="node8" class="node"><title>The Matrix</title>
<ellipse fill="none" stroke="black" cx="290.546" cy="-162" rx="62.2891" ry="18"/>
<text text-anchor="middle" x="290.546" y="-158.3" font-family="Times,serif" font-size="14.00">The Matrix</text>
</g>
<!-- The Matrix&#45;&gt;Titanic -->
<g id="edge8" class="edge"><title>The Matrix&#45;&gt;Titanic</title>
<path fill="none" stroke="black" d="M245.441,-149.433C205.8,-139.102 146.634,-123.283 95.5461,-108 92.4068,-107.061 89.1692,-106.066 85.9168,-105.048"/>
<polygon fill="black" stroke="black" points="86.7895,-101.653 76.199,-101.954 84.666,-108.323 86.7895,-101.653"/>
</g>
<!-- The Matrix&#45;&gt;Rocky -->
<g id="edge9" class="edge"><title>The Matrix&#45;&gt;Rocky</title>
<path fill="none" stroke="black" d="M259.583,-146.155C236.38,-135.03 204.581,-119.784 180.296,-108.14"/>
<polygon fill="black" stroke="black" points="181.59,-104.879 171.06,-103.712 178.564,-111.191 181.59,-104.879"/>
</g>
<!-- The Matrix&#45;&gt;Forrest Gump -->
<g id="edge10" class="edge"><title>The Matrix&#45;&gt;Forrest Gump</title>
<path fill="none" stroke="black" d="M336.33,-149.675C384.387,-137.789 460.174,-119.043 513.114,-105.948"/>
<polygon fill="black" stroke="black" points="514.184,-109.289 523.051,-103.49 512.504,-102.493 514.184,-109.289"/>
</g>
<!-- The Matrix&#45;&gt;Avatar -->
<g id="edge11" class="edge"><title>The Matrix&#45;&gt;Avatar</title>
<path fill="none" stroke="black" d="M321.572,-146.326C345.172,-135.163 377.697,-119.78 402.46,-108.068"/>
<polygon fill="black" stroke="black" points="403.993,-111.214 411.536,-103.775 401,-104.887 403.993,-111.214"/>
</g>
<!-- The Dark Knight -->
<g id="node10" class="node"><title>The Dark Knight</title>
<ellipse fill="none" stroke="black" cx="290.546" cy="-90" rx="88.2844" ry="18"/>
<text text-anchor="middle" x="290.546" y="-86.3" font-family="Times,serif" font-size="14.00">The Dark Knight</text>
</g>
<!-- The Matrix&#45;&gt;The Dark Knight -->
<g id="edge12" class="edge"><title>The Matrix&#45;&gt;The Dark Knight</title>
<path fill="none" stroke="black" d="M290.546,-143.697C290.546,-135.983 290.546,-126.712 290.546,-118.112"/>
<polygon fill="black" stroke="black" points="294.046,-118.104 290.546,-108.104 287.046,-118.104 294.046,-118.104"/>
</g>
<!-- Avatar&#45;&gt;Home Alone -->
<g id="edge13" class="edge"><title>Avatar&#45;&gt;Home Alone</title>
<path fill="none" stroke="black" d="M411.401,-76.1609C388.955,-65.5448 356.74,-50.3079 331.214,-38.2347"/>
<polygon fill="black" stroke="black" points="332.679,-35.056 322.143,-33.9443 329.686,-41.3839 332.679,-35.056"/>
</g>
<!-- The Dark Knight&#45;&gt;Home Alone -->
<g id="edge14" class="edge"><title>The Dark Knight&#45;&gt;Home Alone</title>
<path fill="none" stroke="black" d="M290.546,-71.6966C290.546,-63.9827 290.546,-54.7125 290.546,-46.1124"/>
<polygon fill="black" stroke="black" points="294.046,-46.1043 290.546,-36.1043 287.046,-46.1044 294.046,-46.1043"/>
</g>
</g>
</svg>
