<?xml version="1.0" encoding="UTF-8" standalone="no"?>
<!DOCTYPE svg PUBLIC "-//W3C//DTD SVG 1.1//EN"
 "http://www.w3.org/Graphics/SVG/1.1/DTD/svg11.dtd">
<!-- Generated by graphviz version 2.38.0 (20140413.2041)
 -->
<!-- Title: %3 Pages: 1 -->
<svg width="331pt" height="548pt"
 viewBox="0.00 0.00 330.54 548.00" xmlns="http://www.w3.org/2000/svg" xmlns:xlink="http://www.w3.org/1999/xlink">
<g id="graph0" class="graph" transform="scale(1 1) rotate(0) translate(4 544)">
<title>%3</title>
<polygon fill="white" stroke="none" points="-4,4 -4,-544 326.536,-544 326.536,4 -4,4"/>
<!-- Titanic -->
<g id="node1" class="node"><title>Titanic</title>
<ellipse fill="none" stroke="black" cx="182.392" cy="-162" rx="43.5923" ry="18"/>
<text text-anchor="middle" x="182.392" y="-158.3" font-family="Times,serif" font-size="14.00">Titanic</text>
</g>
<!-- Rocky -->
<g id="node11" class="node"><title>Rocky</title>
<ellipse fill="none" stroke="black" cx="218.392" cy="-90" rx="39.7935" ry="18"/>
<text text-anchor="middle" x="218.392" y="-86.3" font-family="Times,serif" font-size="14.00">Rocky</text>
</g>
<!-- Titanic&#45;&gt;Rocky -->
<g id="edge1" class="edge"><title>Titanic&#45;&gt;Rocky</title>
<path fill="none" stroke="black" d="M191.107,-144.055C195.308,-135.887 200.438,-125.912 205.111,-116.824"/>
<polygon fill="black" stroke="black" points="208.297,-118.283 209.758,-107.789 202.072,-115.081 208.297,-118.283"/>
</g>
<!-- Jurassic Park -->
<g id="node2" class="node"><title>Jurassic Park</title>
<ellipse fill="none" stroke="black" cx="117.392" cy="-306" rx="72.5877" ry="18"/>
<text text-anchor="middle" x="117.392" y="-302.3" font-family="Times,serif" font-size="14.00">Jurassic Park</text>
</g>
<!-- Ghostbusters -->
<g id="node3" class="node"><title>Ghostbusters</title>
<ellipse fill="none" stroke="black" cx="105.392" cy="-234" rx="73.387" ry="18"/>
<text text-anchor="middle" x="105.392" y="-230.3" font-family="Times,serif" font-size="14.00">Ghostbusters</text>
</g>
<!-- Jurassic Park&#45;&gt;Ghostbusters -->
<g id="edge2" class="edge"><title>Jurassic Park&#45;&gt;Ghostbusters</title>
<path fill="none" stroke="black" d="M114.426,-287.697C113.103,-279.983 111.514,-270.712 110.04,-262.112"/>
<polygon fill="black" stroke="black" points="113.464,-261.369 108.324,-252.104 106.564,-262.552 113.464,-261.369"/>
</g>
<!-- Ghostbusters&#45;&gt;Titanic -->
<g id="edge3" class="edge"><title>Ghostbusters&#45;&gt;Titanic</title>
<path fill="none" stroke="black" d="M123.64,-216.411C133.732,-207.237 146.419,-195.703 157.418,-185.703"/>
<polygon fill="black" stroke="black" points="160.023,-188.065 165.068,-178.749 155.315,-182.886 160.023,-188.065"/>
</g>
<!-- The Dark Knight -->
<g id="node4" class="node"><title>The Dark Knight</title>
<ellipse fill="none" stroke="black" cx="88.3922" cy="-522" rx="88.2844" ry="18"/>
<text text-anchor="middle" x="88.3922" y="-518.3" font-family="Times,serif" font-size="14.00">The Dark Knight</text>
</g>
<!-- Forrest Gump -->
<g id="node9" class="node"><title>Forrest Gump</title>
<ellipse fill="none" stroke="black" cx="84.3922" cy="-450" rx="75.2868" ry="18"/>
<text text-anchor="middle" x="84.3922" y="-446.3" font-family="Times,serif" font-size="14.00">Forrest Gump</text>
</g>
<!-- The Dark Knight&#45;&gt;Forrest Gump -->
<g id="edge4" class="edge"><title>The Dark Knight&#45;&gt;Forrest Gump</title>
<path fill="none" stroke="black" d="M87.4034,-503.697C86.9626,-495.983 86.4329,-486.712 85.9414,-478.112"/>
<polygon fill="black" stroke="black" points="89.4344,-477.888 85.3695,-468.104 82.4458,-478.288 89.4344,-477.888"/>
</g>
<!-- Men in Black -->
<g id="node10" class="node"><title>Men in Black</title>
<ellipse fill="none" stroke="black" cx="250.392" cy="-450" rx="72.2875" ry="18"/>
<text text-anchor="middle" x="250.392" y="-446.3" font-family="Times,serif" font-size="14.00">Men in Black</text>
</g>
<!-- The Dark Knight&#45;&gt;Men in Black -->
<g id="edge5" class="edge"><title>The Dark Knight&#45;&gt;Men in Black</title>
<path fill="none" stroke="black" d="M124.345,-505.465C148.67,-494.954 180.942,-481.009 206.742,-469.861"/>
<polygon fill="black" stroke="black" points="208.136,-473.072 215.928,-465.892 205.36,-466.646 208.136,-473.072"/>
</g>
<!-- Avatar -->
<g id="node5" class="node"><title>Avatar</title>
<ellipse fill="none" stroke="black" cx="245.392" cy="-522" rx="41.6928" ry="18"/>
<text text-anchor="middle" x="245.392" y="-518.3" font-family="Times,serif" font-size="14.00">Avatar</text>
</g>
<!-- Avatar&#45;&gt;Forrest Gump -->
<g id="edge6" class="edge"><title>Avatar&#45;&gt;Forrest Gump</title>
<path fill="none" stroke="black" d="M216.979,-508.647C192.404,-497.962 156.48,-482.343 128.222,-470.057"/>
<polygon fill="black" stroke="black" points="129.527,-466.807 118.961,-466.03 126.736,-473.227 129.527,-466.807"/>
</g>
<!-- Avatar&#45;&gt;Men in Black -->
<g id="edge7" class="edge"><title>Avatar&#45;&gt;Men in Black</title>
<path fill="none" stroke="black" d="M246.628,-503.697C247.179,-495.983 247.841,-486.712 248.456,-478.112"/>
<polygon fill="black" stroke="black" points="251.949,-478.328 249.17,-468.104 244.967,-477.83 251.949,-478.328"/>
</g>
<!-- Raiders of the Lost Ark -->
<g id="node6" class="node"><title>Raiders of the Lost Ark</title>
<ellipse fill="none" stroke="black" cx="167.392" cy="-378" rx="119.679" ry="18"/>
<text text-anchor="middle" x="167.392" y="-374.3" font-family="Times,serif" font-size="14.00">Raiders of the Lost Ark</text>
</g>
<!-- Raiders of the Lost Ark&#45;&gt;Jurassic Park -->
<g id="edge8" class="edge"><title>Raiders of the Lost Ark&#45;&gt;Jurassic Park</title>
<path fill="none" stroke="black" d="M155.289,-360.055C149.27,-351.629 141.878,-341.28 135.225,-331.966"/>
<polygon fill="black" stroke="black" points="138.045,-329.892 129.384,-323.789 132.349,-333.961 138.045,-329.892"/>
</g>
<!-- Star Wars -->
<g id="node7" class="node"><title>Star Wars</title>
<ellipse fill="none" stroke="black" cx="254.392" cy="-234" rx="57.3905" ry="18"/>
<text text-anchor="middle" x="254.392" y="-230.3" font-family="Times,serif" font-size="14.00">Star Wars</text>
</g>
<!-- Raiders of the Lost Ark&#45;&gt;Star Wars -->
<g id="edge9" class="edge"><title>Raiders of the Lost Ark&#45;&gt;Star Wars</title>
<path fill="none" stroke="black" d="M177.886,-359.871C193.057,-335.111 221.219,-289.144 238.818,-260.42"/>
<polygon fill="black" stroke="black" points="241.891,-262.104 244.131,-251.748 235.922,-258.447 241.891,-262.104"/>
</g>
<!-- Star Wars&#45;&gt;Titanic -->
<g id="edge10" class="edge"><title>Star Wars&#45;&gt;Titanic</title>
<path fill="none" stroke="black" d="M237.693,-216.765C228.333,-207.665 216.502,-196.162 206.187,-186.134"/>
<polygon fill="black" stroke="black" points="208.611,-183.609 199.001,-179.147 203.731,-188.628 208.611,-183.609"/>
</g>
<!-- Star Wars&#45;&gt;Rocky -->
<g id="edge11" class="edge"><title>Star Wars&#45;&gt;Rocky</title>
<path fill="none" stroke="black" d="M251.253,-215.817C247.839,-197.803 241.981,-168.733 235.392,-144 233.093,-135.37 230.238,-126.064 227.529,-117.694"/>
<polygon fill="black" stroke="black" points="230.805,-116.453 224.343,-108.057 224.159,-118.65 230.805,-116.453"/>
</g>
<!-- Home Alone -->
<g id="node8" class="node"><title>Home Alone</title>
<ellipse fill="none" stroke="black" cx="218.392" cy="-18" rx="67.6881" ry="18"/>
<text text-anchor="middle" x="218.392" y="-14.3" font-family="Times,serif" font-size="14.00">Home Alone</text>
</g>
<!-- Forrest Gump&#45;&gt;Raiders of the Lost Ark -->
<g id="edge12" class="edge"><title>Forrest Gump&#45;&gt;Raiders of the Lost Ark</title>
<path fill="none" stroke="black" d="M104.062,-432.411C114.656,-423.476 127.904,-412.303 139.541,-402.489"/>
<polygon fill="black" stroke="black" points="141.899,-405.079 147.287,-395.956 137.386,-399.728 141.899,-405.079"/>
</g>
<!-- Men in Black&#45;&gt;Raiders of the Lost Ark -->
<g id="edge13" class="edge"><title>Men in Black&#45;&gt;Raiders of the Lost Ark</title>
<path fill="none" stroke="black" d="M230.722,-432.411C220.128,-423.476 206.88,-412.303 195.244,-402.489"/>
<polygon fill="black" stroke="black" points="197.398,-399.728 187.497,-395.956 192.885,-405.079 197.398,-399.728"/>
</g>
<!-- Rocky&#45;&gt;Home Alone -->
<g id="edge14" class="edge"><title>Rocky&#45;&gt;Home Alone</title>
<path fill="none" stroke="black" d="M218.392,-71.6966C218.392,-63.9827 218.392,-54.7125 218.392,-46.1124"/>
<polygon fill="black" stroke="black" points="221.892,-46.1043 218.392,-36.1043 214.892,-46.1044 221.892,-46.1043"/>
</g>
</g>
</svg>
